<?xml version="1.0" standalone="no"?>
<!DOCTYPE svg PUBLIC "-//W3C//DTD SVG 20010904//EN"
 "http://www.w3.org/TR/2001/REC-SVG-20010904/DTD/svg10.dtd">
<svg version="1.0" xmlns="http://www.w3.org/2000/svg"
 width="896.000000pt" height="896.000000pt" viewBox="0 0 896.000000 896.000000"
 preserveAspectRatio="xMidYMid meet">
<metadata>
Created by potrace 1.14, written by Peter Selinger 2001-2017
</metadata>
<g transform="translate(0.000000,896.000000) scale(0.100000,-0.100000)"
fill="#000000" stroke="none">
<path d="M2727 7989 c-630 -56 -1224 -307 -1702 -720 -586 -508 -948 -1216
-1015 -1989 -5 -63 -10 -226 -10 -362 l0 -248 3093 0 c3368 0 3187 -3 3476 56
284 57 511 137 774 271 682 349 1207 952 1453 1668 119 346 154 563 161 1013
l5 322 -3073 -1 c-1691 -1 -3113 -5 -3162 -10z"/>
<path d="M1592 3905 c-640 -96 -1194 -523 -1444 -1113 -54 -127 -90 -247 -120
-395 -20 -95 -21 -145 -25 -770 l-4 -668 1218 4 c1195 3 1220 4 1314 24 602
132 1046 573 1174 1163 22 102 31 374 16 481 -81 571 -466 1035 -1005 1214
-200 66 -212 68 -641 71 -293 2 -413 -1 -483 -11z"/>
<path d="M6875 3914 c-370 -52 -700 -193 -970 -414 -102 -84 -259 -252 -337
-361 -122 -171 -227 -396 -282 -605 -52 -201 -56 -256 -56 -942 l0 -633 1218
4 c1211 3 1218 3 1313 25 298 68 535 193 740 389 312 300 476 706 456 1128
-10 209 -57 397 -147 580 -201 413 -560 694 -1029 807 -78 19 -121 21 -481 23
-217 2 -408 1 -425 -1z"/>
</g>
</svg>
